- 
http://www.Speed.Cd 
       
http://www.Speed.Cd      fast  and The Hottest Private Tracker on the net

(((--Submit for invite!!--)))

Please Seed back to make the speed Faster!!!

------------------nfo--------------------------
-[IMG]http://img88.imageshack.us/img88/1012/setup1s.jpg[/IMG]


[color=blue][size=5][b]Setup.2011.DVDRip.XVID.AC3.HQ.Hive-CM8[/b][/size][/color]


[b]Thx Hive

CM8 Doing It Right The First Time :D


Source: DVD-R Unknown
thx guys

Encode:
!!yes it is sync now!!  :P

well that dvd was lots of work to begin with. had 3 vobs but no ifo or anything else.
Had to reauthor the complete disc manually and fix the ac3 errors that were within,
fixed the aspect and finally had a functioning new dvd-r.
After that i did my usual cleanup, sharpness, brightness, rgb and denoise.
got very nice - enjoy

Video: 720x304 @bitrate 1800 2pass
Audio: English AC3 5.1 @448
Sample: yes included[/b]


[url]http://www.imdb.com/title/tt1748197/[/url]


General
Complete name                    : Setup.2011.DVDRip.XVID.AC3.HQ.Hive-CM8.avi
Format                           : AVI
Format/Info                      : Audio Video Interleave
File size                        : 1.34 GiB
Duration                         : 1h 24mn
Overall bit rate                 : 2 255 Kbps
Writing application              : Nandub v1.0rc2
Writing library                  : Nandub build 1853/release

Video
ID                               : 0
Format                           : MPEG-4 Visual
Format profile                   : Advanced Simple@L5
Format settings, BVOP            : 1
Format settings, QPel            : Yes
Format settings, GMC             : No warppoints
Format settings, Matrix          : Default (H.263)
Muxing mode                      : Packed bitstream
Codec ID                         : XVID
Codec ID/Hint                    : XviD
Duration                         : 1h 24mn
Bit rate                         : 1 797 Kbps
Width                            : 720 pixels
Height                           : 304 pixels
Display aspect ratio             : 2.35:1
Frame rate                       : 23.976 fps
Color space                      : YUV
Chroma subsampling               : 4:2:0
Bit depth                        : 8 bits
Scan type                        : Progressive
Compression mode                 : Lossy
Bits/(Pixel*Frame)               : 0.342
Stream size                      : 1.07 GiB (80%)
Writing library                  : XviD 1.2.1 (UTC 2008-12-04)

Audio
ID                               : 1
Format                           : AC-3
Format/Info                      : Audio Coding 3
Mode extension                   : CM (complete main)
Codec ID                         : 2000
Duration                         : 1h 24mn
Bit rate mode                    : Constant
Bit rate                         : 448 Kbps
Channel(s)                       : 6 channels
Channel positions                : Front: L C R, Side: L R, LFE
Sampling rate                    : 48.0 KHz
Bit depth                        : 16 bits
Compression mode                 : Lossy
Stream size                      : 272 MiB (20%)
Alignment                        : Split accross interleaves
Interleave, duration             : 42 ms (1.00 video frame)
Interleave, preload duration     : 500 ms


Plot:
A group of friends become involved in a potentially deadly diamond heist.


Cast:
Bruce Willis       ...   Biggs
Ryan Phillippe     ...   Vincent
Jenna Dewan-Tatum  ...   Mia
James Remar        ...   William
Randy Couture      ...   Petey
50 Cent            ...   Sonny


[img]http://img155.imageshack.us/img155/3706/30714744.png[/img]
[img]http://img833.imageshack.us/img833/7599/seseo.png[/img]
[img]http://img535.imageshack.us/img535/3200/sesesese.png[/img]
[img]http://img828.imageshack.us/img828/8959/sesesesese.png[/img]
[img]http://img705.imageshack.us/img705/1519/sesesesesese.png[/img]
[img]http://img8.imageshack.us/img8/6134/sesesesesesese.png[/img]
[img]http://img838.imageshack.us/img838/7903/sesese.png[/img]



Greetz

ViSiON,SiC,SANTi,3LT0N,YanKeeS,MAGNET,THC,T0XiC,LKRG,FANTASIA-PLAY,FANTASIA-M,FLAWL3SS,
D2U,WBZ,BHRG,NOVA,Vik,Rapeseed,SAFC,goldadvance,MEMORY100,KaN1vE,Unevano,Pinnz,Wayne
Mr Hive,cedrict wink,and all P2P groups
Great Work Guys :D

FYS

LOOKING FOR ANYTHING YOU WANT TO LOOK AND SOUND BETTER

CM8@hushmail.com